<svg width="32" height="32" viewBox="0 0 32 32" fill="none" xmlns="http://www.w3.org/2000/svg">
<path d="M16 32C24.8366 32 32 24.8366 32 16C32 7.16344 24.8366 0 16 0C7.16344 0 0 7.16344 0 16C0 24.8366 7.16344 32 16 32Z" fill="#5D50C6"/>
<path d="M25.8008 11.4986C25.1151 11.8027 24.3775 12.0083 23.604 12.1002C24.3938 11.627 24.9999 10.8783 25.2859 9.98471C24.547 10.4231 23.7281 10.7411 22.8573 10.9125C22.1597 10.1695 21.1657 9.7052 20.0651 9.7052C17.9533 9.7052 16.2406 11.4179 16.2406 13.5297C16.2406 13.8294 16.2746 14.1212 16.3402 14.4013C13.1617 14.2418 10.3435 12.7194 8.45711 10.4048C8.12797 10.9696 7.93916 11.627 7.93916 12.3278C7.93916 13.6543 8.61484 14.8254 9.64047 15.511C9.01385 15.4914 8.42374 15.3194 7.90836 15.0322C7.90807 15.0484 7.90807 15.0647 7.90807 15.0807C7.90807 16.9337 9.22691 18.4793 10.9761 18.8304C10.6556 18.9182 10.317 18.9647 9.96875 18.9647C9.72176 18.9647 9.48246 18.941 9.24915 18.8965C9.73573 20.4156 11.1478 21.5214 12.8218 21.5525C11.5126 22.5784 9.86379 23.1896 8.0715 23.1896C7.76347 23.1896 7.45829 23.1716 7.15967 23.136C8.85128 24.2215 10.862 24.8544 13.0217 24.8544C20.0562 24.8544 23.9032 19.0269 23.9032 13.9726C23.9032 13.8069 23.8995 13.6417 23.8921 13.478C24.6399 12.939 25.2882 12.2656 25.8008 11.4986Z" fill="#F1F2F2"/>
</svg>
